<?xml version="1.0" encoding="UTF-8" standalone="no"?>
<!-- Created with Inkscape (http://www.inkscape.org/) -->

<svg
   width="87.7472mm"
   height="80.615494mm"
   viewBox="0 0 87.7472 80.615494"
   version="1.1"
   id="svg1"
   xml:space="preserve"
   xmlns="http://www.w3.org/2000/svg"
   xmlns:svg="http://www.w3.org/2000/svg"><defs
     id="defs1" /><g
     id="g81"
     style="display:inline"
     transform="translate(-87.679053,-29.021315)"><path
       id="path74"
       style="display:inline;stroke-width:0.628628;stroke-linecap:round;stroke-linejoin:round"
       d="m 146.54305,29.023635 c -2.87488,0.0512 -5.528,0.919145 -7.42384,2.273318 -1.08334,0.773812 -1.74613,1.606801 -2.31588,2.209971 -0.56975,0.60317 -1.02605,1.025133 -1.9163,1.430325 -1.78052,0.810391 -6.12769,1.485618 -11.11158,3.584097 -4.98389,2.098478 -10.50631,5.643172 -15.92459,10.472916 -5.41827,4.829744 -10.804824,11.032243 -14.649859,19.476527 -3.845036,8.444289 -6.181169,18.861489 -5.356817,26.232809 0.824353,7.371312 5.214591,11.255812 9.237828,13.047682 4.023238,1.79188 7.886928,1.84135 18.225188,1.87245 6.37162,0.0192 15.27563,0.0205 23.79544,-0.0182 a 1.8858833,1.8858833 0 0 0 0.0819,-3.3e-4 c 5.27471,-0.0242 10.43439,-0.0603 14.6424,-0.12766 0.2496,-0.004 0.40223,-0.0121 0.64548,-0.0162 a 1.8858865,1.8858865 0 0 0 0.53373,-0.0133 c 4.82155,-0.0871 8.50588,-0.20794 10.8923,-0.51294 1.30083,-0.16626 2.21933,-0.28427 3.18746,-0.86216 0.48405,-0.28894 1.1268,-0.87482 1.25945,-1.78279 0.13265,-0.90798 -0.29167,-1.61551 -0.65198,-2.03683 -0.72061,-0.84262 -1.48981,-1.23963 -2.44549,-1.82209 -0.95569,-0.58247 -2.05818,-1.22489 -3.15172,-1.95204 -2.18708,-1.454311 -4.24086,-3.267651 -4.98875,-5.144362 -0.7479,-1.87671 -0.5105,-4.59153 0.18679,-7.69835 0.33049,-1.47255 0.75116,-3.01932 1.14315,-4.59048 0.01,-0.0323 0.0213,-0.0648 0.0305,-0.0971 a 1.8858865,1.8858865 0 0 0 0.0497,-0.23194 c 0.40255,-1.6365 0.76829,-3.30361 0.96448,-4.96278 0.71691,-6.062677 -1.03393,-11.147332 -2.88891,-15.873905 0.0348,-0.01802 0.0681,-0.0362 0.10298,-0.05425 a 1.8858865,1.8858865 0 0 0 0.1517,-0.09421 c 2.7063,-1.410662 5.4156,-2.822133 8.2035,-4.359194 1.69149,-0.932574 3.47933,-1.92901 5.0141,-3.199471 1.53477,-1.270462 2.88716,-2.90295 3.25502,-5.04236 0.36786,-2.139408 -0.2587,-4.294925 -1.33092,-6.212802 -1.07223,-1.917877 -2.62784,-3.627882 -4.53656,-4.744145 -1.90872,-1.116261 -3.92362,-1.47161 -5.63684,-1.666167 -1.71321,-0.194558 -3.19742,-0.279563 -3.84073,-0.47396 -0.6433,-0.194393 -0.90396,-0.444242 -1.39816,-1.044725 -0.49421,-0.600483 -1.10727,-1.557621 -2.16092,-2.507211 -2.10732,-1.899183 -5.28365,-3.213209 -8.62906,-3.429143 -0.41817,-0.02699 -0.83348,-0.03623 -1.24419,-0.02891 z m 0.0851,3.778684 c 0.30551,-0.0093 0.61201,-0.005 0.91609,0.01462 2.43267,0.15702 5.08559,1.330391 6.34632,2.466605 0.63037,0.568107 1.08549,1.26553 1.77402,2.10212 0.68852,0.836589 1.72429,1.805569 3.22058,2.257724 1.49629,0.452151 2.9955,0.439832 4.50603,0.611372 1.51053,0.17154 2.96141,0.475508 4.15746,1.174991 1.19607,0.699483 2.38359,1.961792 3.14782,3.328763 0.76423,1.36697 1.06617,2.808435 0.90732,3.732229 -0.15884,0.923793 -0.78866,1.821448 -1.94359,2.777488 -1.15494,0.956041 -2.76354,1.883246 -4.42969,2.801852 -3.33231,1.83721 -6.59612,3.536081 -9.87389,5.242468 a 1.8860719,1.8860719 0 0 0 -0.0315,0.02794 c -2.61455,1.393782 -5.39238,3.051535 -8.37535,5.895096 -3.61054,3.44181 -7.6079,8.585221 -8.95423,14.643691 -1.34633,6.05847 0.10095,12.53383 3.24137,17.583291 2.08645,3.354751 4.85979,5.964891 7.78899,8.296721 -2.8681,0.0308 -6.17383,0.0368 -9.34373,0.0533 -3.30178,-2.33594 -6.3688,-4.60381 -8.93896,-8.248311 -2.41134,-3.419281 -4.51602,-8.314721 -6.58898,-13.435251 -0.13465,-0.40295 -0.28746,-0.80615 -0.45739,-1.21332 -0.0792,-0.18967 -0.17305,-0.37711 -0.25989,-0.5659 -0.0145,-0.0362 -0.029,-0.072 -0.0435,-0.10817 a 1.8858833,1.8858833 0 0 0 -0.026,-0.0435 c -0.58556,-1.24218 -1.31988,-2.45074 -2.14954,-3.48144 -1.91575,-2.37996 -4.93267,-4.57724 -9.17903,-4.33159 -4.24635,0.24564 -9.32295,2.52178 -13.458954,5.80349 -2.70014,2.14242 -4.859659,4.66369 -6.80988,7.26533 0.655658,-5.53725 2.407269,-12.02482 4.864015,-17.420211 1.050204,-2.306415 2.232226,-4.412572 3.492809,-6.380426 6.47111,0.02999 12.94254,0.05903 17.44489,0.06237 4.51585,0.0033 7.15366,0.0044 9.56918,-0.567518 2.41552,-0.571883 4.32894,-1.694314 5.85904,-2.81517 1.5301,-1.120855 2.75258,-2.28781 3.907,-3.386261 a 1.8858865,1.8858865 0 0 0 0.0663,-2.665415 1.8858865,1.8858865 0 0 0 -1.31988,-0.585709 1.8858865,1.8858865 0 0 0 -1.34684,0.519439 c -1.15442,1.098452 -2.24097,2.127659 -3.53471,3.075378 -1.29376,0.947718 -2.71915,1.766293 -4.49986,2.187881 -1.7807,0.421589 -4.19617,0.468852 -8.69792,0.465513 -3.81381,-0.0028 -9.35142,-0.02851 -14.81067,-0.05327 2.38134,-3.080448 4.96733,-5.73671 7.59732,-8.081028 5.14981,-4.590437 10.38145,-7.919106 14.87824,-9.812493 4.49679,-1.893387 8.35519,-2.327444 11.20968,-3.626651 1.42726,-0.649607 2.39629,-1.532691 3.0965,-2.273968 0.70021,-0.741278 1.15233,-1.290878 1.76687,-1.729839 1.07546,-0.76818 3.17769,-1.498759 5.3162,-1.564164 z m 0.76406,6.54935 a 4.8268706,4.8268706 0 0 0 -4.82698,4.826982 4.8268706,4.8268706 0 0 0 4.82698,4.826981 4.8268706,4.8268706 0 0 0 4.82666,-4.826981 4.8268706,4.8268706 0 0 0 -4.82666,-4.826982 z m 13.36118,5.605003 a 1.2348959,1.2348959 0 0 0 -1.23509,1.234764 1.2348959,1.2348959 0 0 0 1.23509,1.235088 v 0.013 h 2.87495 a 1.2348959,1.2348959 0 0 0 1.23476,-1.234764 1.2348959,1.2348959 0 0 0 -1.23476,-1.234764 v -0.01332 z m -5.5056,18.732614 c 1.71078,4.420472 3.07206,8.685302 2.48837,13.621382 -0.17881,1.51219 -0.55827,3.16915 -0.9856,4.88416 -1.01717,3.20211 -3.96461,7.44355 -6.72022,10.75294 -1.62394,1.95029 -3.09504,3.524141 -4.11133,4.575221 -0.52939,-0.65923 -1.03408,-1.33505 -1.48003,-2.052091 -2.64019,-4.24514 -3.8544,-9.8548 -2.76125,-14.77397 1.09315,-4.91916 4.63653,-9.645004 7.87378,-12.73096 2.00298,-1.90938 3.85007,-3.19525 5.69628,-4.276682 z m -41.94267,14.460802 c 2.30459,0.14554 3.65398,1.29029 4.97479,2.93115 0.61474,0.76369 1.22887,1.77782 1.69476,2.76611 0.14731,0.36724 0.29744,0.73219 0.44504,1.09963 0.29818,0.9103 0.39252,1.69355 0.36969,1.82145 -0.0432,0.24181 -0.54302,1.31498 -1.39849,2.39286 -0.85546,1.07787 -2.01948,2.25213 -3.22546,3.22676 -2.47107,1.99704 -4.34576,2.86495 -6.84367,4.030771 a 1.8858865,1.8858865 0 0 0 -0.91218,2.50721 1.8858865,1.8858865 0 0 0 2.50721,0.91087 c 2.4979,-1.1658 4.8262,-2.25811 7.61974,-4.515761 1.42632,-1.15271 2.75225,-2.4838 3.80856,-3.81474 0.18347,-0.23117 0.34933,-0.4579 0.51749,-0.68544 1.43522,3.26136 2.97974,6.340361 4.79743,8.917841 1.77427,2.515931 3.75331,4.451701 5.77457,6.109181 -6.65217,0.0179 -13.12552,0.0189 -18.11507,0.004 -10.32567,-0.031 -13.4715,-0.10657 -16.7026,-1.54565 -3.231109,-1.43907 -6.338711,-3.8923 -7.024283,-10.022662 -0.0073,-0.0657 -0.0099,-0.13838 -0.01657,-0.20498 a 1.8858865,1.8858865 0 0 0 0.306335,-0.29464 c 2.780631,-3.99035 5.465777,-7.80317 9.042588,-10.64119 3.57682,-2.83803 8.36387,-4.82068 11.33117,-4.99233 0.37091,-0.0215 0.71973,-0.0211 1.04895,-3.3e-4 z m 41.5509,14.80255 c 0.0433,1.28587 0.25879,2.55305 0.74749,3.779341 1.25955,3.16061 3.97951,5.275561 6.40414,6.887831 0.96032,0.63857 1.80315,1.13241 2.59654,1.60965 -2.04335,0.21935 -5.20644,0.35298 -9.44183,0.43919 -2.383,-1.74571 -4.67032,-3.47761 -6.67442,-5.37663 1.06608,-1.096961 2.6659,-2.797991 4.44138,-4.930282 0.63526,-0.76292 1.28439,-1.57385 1.9267,-2.4091 z" /></g></svg>
