<?xml version="1.0" encoding="UTF-8" standalone="no"?>
<!-- Created with Inkscape (http://www.inkscape.org/) -->

<svg
   width="149.99998mm"
   height="150mm"
   viewBox="0 0 149.99999 150"
   version="1.1"
   id="svg1"
   xml:space="preserve"
   xmlns="http://www.w3.org/2000/svg"
   xmlns:svg="http://www.w3.org/2000/svg"><defs
     id="defs1" /><g
     id="g81"
     style="display:inline"
     transform="translate(-56.205075,-19.937217)"><rect
       style="fill:none;stroke:#000000;stroke-width:1.78038;stroke-linecap:round;stroke-linejoin:round;stroke-dasharray:none"
       id="rect79"
       width="148.21962"
       height="148.21962"
       x="57.095264"
       y="20.827406"
       ry="20.510811" /><path
       id="path74"
       style="display:inline;stroke-width:0.628628;stroke-linecap:round;stroke-linejoin:round"
       d="m 146.54305,29.023635 c -2.87488,0.0512 -5.528,0.919145 -7.42384,2.273318 -1.08334,0.773812 -1.74613,1.606801 -2.31588,2.209971 -0.56975,0.60317 -1.02605,1.025133 -1.9163,1.430325 -1.78052,0.810391 -6.12769,1.485618 -11.11158,3.584097 -4.98389,2.098478 -10.50631,5.643172 -15.92459,10.472916 -5.41827,4.829744 -10.804824,11.032243 -14.649859,19.476527 -3.845036,8.444289 -6.181169,18.861489 -5.356817,26.232809 0.824353,7.371312 5.214591,11.255812 9.237828,13.047682 4.023238,1.79188 7.886928,1.84135 18.225188,1.87245 6.37162,0.0192 15.27563,0.0205 23.79544,-0.0182 a 1.8858833,1.8858833 0 0 0 0.0819,-3.3e-4 c 5.27471,-0.0242 10.43439,-0.0603 14.6424,-0.12766 0.2496,-0.004 0.40223,-0.0121 0.64548,-0.0162 a 1.8858865,1.8858865 0 0 0 0.53373,-0.0133 c 4.82155,-0.0871 8.50588,-0.20794 10.8923,-0.51294 1.30083,-0.16626 2.21933,-0.28427 3.18746,-0.86216 0.48405,-0.28894 1.1268,-0.87482 1.25945,-1.78279 0.13265,-0.90798 -0.29167,-1.61551 -0.65198,-2.03683 -0.72061,-0.84262 -1.48981,-1.23963 -2.44549,-1.82209 -0.95569,-0.58247 -2.05818,-1.22489 -3.15172,-1.95204 -2.18708,-1.454311 -4.24086,-3.267651 -4.98875,-5.144362 -0.7479,-1.87671 -0.5105,-4.59153 0.18679,-7.69835 0.33049,-1.47255 0.75116,-3.01932 1.14315,-4.59048 0.01,-0.0323 0.0213,-0.0648 0.0305,-0.0971 a 1.8858865,1.8858865 0 0 0 0.0497,-0.23194 c 0.40255,-1.6365 0.76829,-3.30361 0.96448,-4.96278 0.71691,-6.062677 -1.03393,-11.147332 -2.88891,-15.873905 0.0348,-0.01802 0.0681,-0.0362 0.10298,-0.05425 a 1.8858865,1.8858865 0 0 0 0.1517,-0.09421 c 2.7063,-1.410662 5.4156,-2.822133 8.2035,-4.359194 1.69149,-0.932574 3.47933,-1.92901 5.0141,-3.199471 1.53477,-1.270462 2.88716,-2.90295 3.25502,-5.04236 0.36786,-2.139408 -0.2587,-4.294925 -1.33092,-6.212802 -1.07223,-1.917877 -2.62784,-3.627882 -4.53656,-4.744145 -1.90872,-1.116261 -3.92362,-1.47161 -5.63684,-1.666167 -1.71321,-0.194558 -3.19742,-0.279563 -3.84073,-0.47396 -0.6433,-0.194393 -0.90396,-0.444242 -1.39816,-1.044725 -0.49421,-0.600483 -1.10727,-1.557621 -2.16092,-2.507211 -2.10732,-1.899183 -5.28365,-3.213209 -8.62906,-3.429143 -0.41817,-0.02699 -0.83348,-0.03623 -1.24419,-0.02891 z m 0.0851,3.778684 c 0.30551,-0.0093 0.61201,-0.005 0.91609,0.01462 2.43267,0.15702 5.08559,1.330391 6.34632,2.466605 0.63037,0.568107 1.08549,1.26553 1.77402,2.10212 0.68852,0.836589 1.72429,1.805569 3.22058,2.257724 1.49629,0.452151 2.9955,0.439832 4.50603,0.611372 1.51053,0.17154 2.96141,0.475508 4.15746,1.174991 1.19607,0.699483 2.38359,1.961792 3.14782,3.328763 0.76423,1.36697 1.06617,2.808435 0.90732,3.732229 -0.15884,0.923793 -0.78866,1.821448 -1.94359,2.777488 -1.15494,0.956041 -2.76354,1.883246 -4.42969,2.801852 -3.33231,1.83721 -6.59612,3.536081 -9.87389,5.242468 a 1.8860719,1.8860719 0 0 0 -0.0315,0.02794 c -2.61455,1.393782 -5.39238,3.051535 -8.37535,5.895096 -3.61054,3.44181 -7.6079,8.585221 -8.95423,14.643691 -1.34633,6.05847 0.10095,12.53383 3.24137,17.583291 2.08645,3.354751 4.85979,5.964891 7.78899,8.296721 -2.8681,0.0308 -6.17383,0.0368 -9.34373,0.0533 -3.30178,-2.33594 -6.3688,-4.60381 -8.93896,-8.248311 -2.41134,-3.419281 -4.51602,-8.314721 -6.58898,-13.435251 -0.13465,-0.40295 -0.28746,-0.80615 -0.45739,-1.21332 -0.0792,-0.18967 -0.17305,-0.37711 -0.25989,-0.5659 -0.0145,-0.0362 -0.029,-0.072 -0.0435,-0.10817 a 1.8858833,1.8858833 0 0 0 -0.026,-0.0435 c -0.58556,-1.24218 -1.31988,-2.45074 -2.14954,-3.48144 -1.91575,-2.37996 -4.93267,-4.57724 -9.17903,-4.33159 -4.24635,0.24564 -9.32295,2.52178 -13.458954,5.80349 -2.70014,2.14242 -4.859659,4.66369 -6.80988,7.26533 0.655658,-5.53725 2.407269,-12.02482 4.864015,-17.420211 1.050204,-2.306415 2.232226,-4.412572 3.492809,-6.380426 6.47111,0.02999 12.94254,0.05903 17.44489,0.06237 4.51585,0.0033 7.15366,0.0044 9.56918,-0.567518 2.41552,-0.571883 4.32894,-1.694314 5.85904,-2.81517 1.5301,-1.120855 2.75258,-2.28781 3.907,-3.386261 a 1.8858865,1.8858865 0 0 0 0.0663,-2.665415 1.8858865,1.8858865 0 0 0 -1.31988,-0.585709 1.8858865,1.8858865 0 0 0 -1.34684,0.519439 c -1.15442,1.098452 -2.24097,2.127659 -3.53471,3.075378 -1.29376,0.947718 -2.71915,1.766293 -4.49986,2.187881 -1.7807,0.421589 -4.19617,0.468852 -8.69792,0.465513 -3.81381,-0.0028 -9.35142,-0.02851 -14.81067,-0.05327 2.38134,-3.080448 4.96733,-5.73671 7.59732,-8.081028 5.14981,-4.590437 10.38145,-7.919106 14.87824,-9.812493 4.49679,-1.893387 8.35519,-2.327444 11.20968,-3.626651 1.42726,-0.649607 2.39629,-1.532691 3.0965,-2.273968 0.70021,-0.741278 1.15233,-1.290878 1.76687,-1.729839 1.07546,-0.76818 3.17769,-1.498759 5.3162,-1.564164 z m 0.76406,6.54935 a 4.8268706,4.8268706 0 0 0 -4.82698,4.826982 4.8268706,4.8268706 0 0 0 4.82698,4.826981 4.8268706,4.8268706 0 0 0 4.82666,-4.826981 4.8268706,4.8268706 0 0 0 -4.82666,-4.826982 z m 13.36118,5.605003 a 1.2348959,1.2348959 0 0 0 -1.23509,1.234764 1.2348959,1.2348959 0 0 0 1.23509,1.235088 v 0.013 h 2.87495 a 1.2348959,1.2348959 0 0 0 1.23476,-1.234764 1.2348959,1.2348959 0 0 0 -1.23476,-1.234764 v -0.01332 z m -5.5056,18.732614 c 1.71078,4.420472 3.07206,8.685302 2.48837,13.621382 -0.17881,1.51219 -0.55827,3.16915 -0.9856,4.88416 -1.01717,3.20211 -3.96461,7.44355 -6.72022,10.75294 -1.62394,1.95029 -3.09504,3.524141 -4.11133,4.575221 -0.52939,-0.65923 -1.03408,-1.33505 -1.48003,-2.052091 -2.64019,-4.24514 -3.8544,-9.8548 -2.76125,-14.77397 1.09315,-4.91916 4.63653,-9.645004 7.87378,-12.73096 2.00298,-1.90938 3.85007,-3.19525 5.69628,-4.276682 z m -41.94267,14.460802 c 2.30459,0.14554 3.65398,1.29029 4.97479,2.93115 0.61474,0.76369 1.22887,1.77782 1.69476,2.76611 0.14731,0.36724 0.29744,0.73219 0.44504,1.09963 0.29818,0.9103 0.39252,1.69355 0.36969,1.82145 -0.0432,0.24181 -0.54302,1.31498 -1.39849,2.39286 -0.85546,1.07787 -2.01948,2.25213 -3.22546,3.22676 -2.47107,1.99704 -4.34576,2.86495 -6.84367,4.030771 a 1.8858865,1.8858865 0 0 0 -0.91218,2.50721 1.8858865,1.8858865 0 0 0 2.50721,0.91087 c 2.4979,-1.1658 4.8262,-2.25811 7.61974,-4.515761 1.42632,-1.15271 2.75225,-2.4838 3.80856,-3.81474 0.18347,-0.23117 0.34933,-0.4579 0.51749,-0.68544 1.43522,3.26136 2.97974,6.340361 4.79743,8.917841 1.77427,2.515931 3.75331,4.451701 5.77457,6.109181 -6.65217,0.0179 -13.12552,0.0189 -18.11507,0.004 -10.32567,-0.031 -13.4715,-0.10657 -16.7026,-1.54565 -3.231109,-1.43907 -6.338711,-3.8923 -7.024283,-10.022662 -0.0073,-0.0657 -0.0099,-0.13838 -0.01657,-0.20498 a 1.8858865,1.8858865 0 0 0 0.306335,-0.29464 c 2.780631,-3.99035 5.465777,-7.80317 9.042588,-10.64119 3.57682,-2.83803 8.36387,-4.82068 11.33117,-4.99233 0.37091,-0.0215 0.71973,-0.0211 1.04895,-3.3e-4 z m 41.5509,14.80255 c 0.0433,1.28587 0.25879,2.55305 0.74749,3.779341 1.25955,3.16061 3.97951,5.275561 6.40414,6.887831 0.96032,0.63857 1.80315,1.13241 2.59654,1.60965 -2.04335,0.21935 -5.20644,0.35298 -9.44183,0.43919 -2.383,-1.74571 -4.67032,-3.47761 -6.67442,-5.37663 1.06608,-1.096961 2.6659,-2.797991 4.44138,-4.930282 0.63526,-0.76292 1.28439,-1.57385 1.9267,-2.4091 z" /><g
       id="text45"
       style="font-size:20.5024px;letter-spacing:0.744325px;word-spacing:-2.48108px;stroke:#000000;stroke-width:1.55382;stroke-linecap:round;stroke-linejoin:round"
       aria-label="Toad Town &#10;Services"><g
         id="path50"><path
           style="-inkscape-font-specification:'ubuntu Light';stroke:none;stroke-linecap:butt;stroke-linejoin:miter"
           d="m 124.32031,118.87109 -1.33398,0.2461 c -0.3686,0.0686 -0.63562,0.39069 -0.63477,0.76562 v 4.45703 c -0.67463,-0.30426 -1.4212,-0.38555 -2.15434,-0.39648 -0.85791,0 -1.65861,0.15572 -2.37305,0.48047 -0.002,6.6e-4 -0.004,0.001 -0.006,0.002 -0.68671,0.31941 -1.28401,0.77753 -1.76563,1.35547 -0.4798,0.57576 -0.84078,1.25733 -1.08593,2.02344 -0.001,0.003 -0.003,0.007 -0.004,0.01 -0.23057,0.7532 -0.3418,1.56914 -0.3418,2.44141 0,0.93509 0.13476,1.79882 0.41602,2.58008 0.001,0.005 0.003,0.009 0.004,0.0137 0.29136,0.76676 0.70184,1.43945 1.22851,1.99805 0.003,0.003 0.005,0.007 0.008,0.01 0.53778,0.55359 1.1785,0.98503 1.90039,1.2832 0.006,0.003 0.0117,0.005 0.0176,0.008 0.74037,0.28354 1.54929,0.41992 2.41016,0.41992 0.97689,0 1.80028,-0.0612 2.49023,-0.19922 0.63786,-0.12757 1.17359,-0.26237 1.61914,-0.41602 0.3139,-0.10836 0.52424,-0.40424 0.52344,-0.73632 v -15.58008 c 9.6e-4,-0.48621 -0.43983,-0.85385 -0.91797,-0.76563 z m -44.615232,1.68946 c -0.428632,8.8e-4 -0.775586,0.34871 -0.775391,0.77734 v 1.20899 c -1.95e-4,0.42863 0.346759,0.77646 0.775391,0.77734 h 3.775391 v 12.2207 c -2e-4,0.4294 0.347944,0.77755 0.777343,0.77735 h 1.394532 c 0.428636,-8.8e-4 0.775591,-0.34871 0.77539,-0.77735 v -12.2207 h 3.775391 c 0.429395,2e-4 0.777539,-0.34794 0.777344,-0.77734 v -1.20899 c 1.95e-4,-0.4294 -0.347949,-0.77754 -0.777344,-0.77734 z m 50.570312,0 c -0.42939,-1.9e-4 -0.77753,0.34795 -0.77734,0.77734 v 1.20899 c -1.9e-4,0.42939 0.34795,0.77753 0.77734,0.77734 h 3.77539 v 12.2207 c -2e-4,0.42864 0.34675,0.77647 0.77539,0.77735 h 1.39453 c 0.4294,2e-4 0.77755,-0.34795 0.77735,-0.77735 v -12.2207 h 3.77343 c 0.4294,2e-4 0.77754,-0.34794 0.77735,-0.77734 v -1.20899 c 1.9e-4,-0.4294 -0.34795,-0.77754 -0.77735,-0.77734 z m -33.894531,3.36328 c -0.809023,0 -1.576071,0.15962 -2.271484,0.48242 -0.68376,0.3041 -1.290659,0.74715 -1.794922,1.31445 v 0.002 c -0.49598,0.55998 -0.879691,1.23134 -1.154297,1.99414 -0.002,0.005 -0.004,0.009 -0.0059,0.0137 -0.263357,0.77458 -0.388672,1.61946 -0.388672,2.52539 0,0.90594 0.125315,1.75081 0.388672,2.52539 0.0019,0.005 0.0039,0.009 0.0059,0.0137 0.274606,0.7628 0.658315,1.43417 1.154297,1.99414 0.0026,0.003 0.0052,0.007 0.0078,0.01 0.504594,0.5519 1.10515,0.99323 1.783203,1.30859 0.0045,0.002 0.0091,0.004 0.01367,0.006 0.693633,0.30649 1.456344,0.45508 2.261718,0.45508 0.805375,0 1.568086,-0.14859 2.261719,-0.45508 0.0046,-0.002 0.0091,-0.004 0.01367,-0.006 0.677133,-0.31494 1.271701,-0.75908 1.763667,-1.3125 0.51189,-0.56083 0.89829,-1.2395 1.16016,-2.00586 0.27886,-0.77673 0.41601,-1.62506 0.41601,-2.5332 0,-0.90813 -0.13715,-1.75648 -0.41601,-2.5332 -0.26107,-0.76404 -0.64667,-1.44017 -1.15625,-2 -0.491189,-0.56762 -1.089627,-1.0131 -1.771483,-1.31641 -0.695413,-0.3228 -1.462462,-0.48242 -2.271485,-0.48242 z m 11.691411,0 c -0.71967,0 -1.35195,0.0477 -1.91016,0.15625 -0.001,6.6e-4 -0.003,0.001 -0.004,0.002 -0.51048,0.10209 -0.90685,0.20559 -1.24609,0.36524 -0.31218,0.14746 -0.48961,0.48322 -0.43555,0.82421 l 0.1836,1.16993 c 0.0773,0.48851 0.58537,0.78139 1.04687,0.60351 0.13284,-0.0511 0.40325,-0.13781 0.77539,-0.24414 0.24882,-0.0711 0.78655,-0.13476 1.5293,-0.13476 0.46256,0 0.7723,0.0803 0.94141,0.17187 0.0116,0.006 0.0233,0.012 0.0352,0.0176 0.22968,0.11025 0.3579,0.23093 0.45313,0.38476 0.008,0.0126 0.0166,0.025 0.0254,0.0371 0.12059,0.17227 0.19782,0.36492 0.23633,0.61524 6.6e-4,0.002 10e-4,0.004 0.002,0.006 0.0322,0.20094 0.0381,0.41947 0.0488,0.63476 -0.17996,-0.0326 -0.36154,-0.0611 -0.55274,-0.0742 -0.22956,-0.0298 -0.4558,-0.0469 -0.67773,-0.0469 -0.69201,0 -1.34282,0.0678 -1.95313,0.20508 -0.62475,0.14057 -1.19033,0.37434 -1.67773,0.70898 -0.49408,0.32589 -0.89918,0.76261 -1.17578,1.28125 -0.28953,0.54288 -0.41797,1.16908 -0.41797,1.8418 0,0.6838 0.10737,1.30805 0.35547,1.85742 0.004,0.01 0.009,0.0196 0.0137,0.0293 0.25134,0.5027 0.59881,0.93881 1.0293,1.2832 0.009,0.007 0.018,0.0145 0.0273,0.0215 0.43845,0.3204 0.94018,0.55218 1.48828,0.69727 0.002,6.7e-4 0.004,0.001 0.006,0.002 0.54925,0.14124 1.13471,0.20899 1.75195,0.20899 0.45229,0 0.89145,-0.0225 1.32032,-0.0645 0.01,-6.3e-4 0.0175,-0.001 0.0273,-0.002 0.432,-0.0286 0.83042,-0.0708 1.19336,-0.1289 0.3413,-0.0546 0.64335,-0.10169 0.90234,-0.14258 0.0124,-0.002 0.0248,-0.005 0.0371,-0.008 0.27112,-0.0571 0.48286,-0.10755 0.65821,-0.16015 0.329,-0.0982 0.55452,-0.40078 0.55468,-0.74414 v -6.6836 c 0,-0.62356 -0.0776,-1.21604 -0.23633,-1.77148 -0.16377,-0.57321 -0.43652,-1.08992 -0.81445,-1.52148 -0.38803,-0.45661 -0.90007,-0.80126 -1.48633,-1.03125 -0.60076,-0.25473 -1.28721,-0.36719 -2.05468,-0.36719 z m 38.87695,0 c -0.80902,0 -1.57607,0.15962 -2.27149,0.48242 -0.68375,0.3041 -1.2887,0.74716 -1.79296,1.31445 l -0.002,0.002 c -0.49597,0.55998 -0.87969,1.23134 -1.15429,1.99414 -10e-4,0.005 -0.003,0.009 -0.004,0.0137 -0.26336,0.77458 -0.39063,1.61946 -0.39063,2.52539 0,0.90594 0.12727,1.75081 0.39063,2.52539 0.001,0.005 0.003,0.009 0.004,0.0137 0.2746,0.7628 0.65831,1.43417 1.15429,1.99414 0.003,0.003 0.005,0.007 0.008,0.01 0.5046,0.5519 1.10516,0.99323 1.78321,1.30859 0.005,0.002 0.009,0.004 0.0137,0.006 0.69364,0.30649 1.45635,0.45508 2.26172,0.45508 0.80538,0 1.56808,-0.14859 2.26172,-0.45508 0.005,-0.002 0.009,-0.004 0.0137,-0.006 0.67881,-0.31572 1.2749,-0.76105 1.76758,-1.3164 0.51163,-0.56151 0.89875,-1.23877 1.16015,-2.00586 0.27793,-0.7757 0.41211,-1.62264 0.41211,-2.5293 0,-0.90666 -0.13418,-1.7536 -0.41211,-2.5293 -0.2611,-0.76621 -0.64745,-1.44277 -1.1582,-2.0039 -0.4912,-0.56763 -1.09158,-1.0131 -1.77344,-1.31641 -0.69541,-0.3228 -1.46246,-0.48242 -2.27148,-0.48242 z m 29.16797,0.041 c -1.00692,0 -1.87346,0.0693 -2.61524,0.22071 -0.68009,0.13879 -1.22587,0.26375 -1.65039,0.38086 -0.33659,0.0929 -0.56988,0.39887 -0.57031,0.74804 v 10.23047 c -2e-4,0.42864 0.34675,0.77647 0.77539,0.77735 h 1.33398 c 0.42864,-8.8e-4 0.7756,-0.34871 0.7754,-0.77735 v -8.68164 c 0.10464,-0.0208 0.0873,-0.0225 0.22265,-0.043 l -0.004,0.002 c 0.41482,-0.061 0.92675,-0.0957 1.52734,-0.0957 0.52149,0 0.91514,0.071 1.17187,0.17188 0.25287,0.072 0.42755,0.2287 0.5918,0.42381 0.18754,0.24819 0.30816,0.5575 0.38284,0.96292 0.001,0.007 0.003,0.013 0.004,0.0195 0.0938,0.44546 0.14844,1.03201 0.14844,1.74609 v 5.49414 c -2e-4,0.42864 0.34675,0.77647 0.77539,0.77735 h 1.33398 c 0.4294,2e-4 0.77755,-0.34795 0.77735,-0.77735 v -5.92383 c 0,-0.77328 -0.073,-1.49496 -0.22461,-2.16211 -0.15669,-0.68943 -0.43521,-1.3071 -0.83594,-1.82812 -0.3997,-0.55097 -0.9526,-0.97594 -1.60547,-1.25391 -0.66388,-0.28869 -1.43484,-0.41211 -2.31445,-0.41211 z m -21.98438,0.20508 c -0.50091,2.9e-4 -0.87067,0.4675 -0.75586,0.95508 0.49658,2.09666 1.03454,4.01768 1.61719,5.76562 6.6e-4,0.002 0.001,0.004 0.002,0.006 0.59513,1.74387 1.24713,3.40018 1.95508,4.96875 0.12557,0.27789 0.40209,0.45664 0.70703,0.45704 h 1.27149 c 0.31101,3.1e-4 0.59224,-0.18488 0.71484,-0.47071 0.20974,-0.48939 0.42359,-1.03166 0.64453,-1.625 l 0.004,-0.01 c 0.2338,-0.60547 0.46824,-1.24295 0.70117,-1.91407 l 0.002,-0.008 c 0.21517,-0.59809 0.41526,-1.22415 0.60938,-1.86133 0.20215,0.63563 0.40499,1.26007 0.60742,1.85547 0.002,0.007 0.004,0.013 0.006,0.0195 0.24577,0.66904 0.47694,1.30379 0.69531,1.9043 0.003,0.007 0.005,0.013 0.008,0.0195 0.23459,0.59337 0.45748,1.13255 0.66602,1.61914 0.12232,0.28518 0.40259,0.47024 0.71289,0.47071 h 1.25195 c 0.30495,-4e-4 0.58147,-0.17915 0.70704,-0.45704 0.7079,-1.56849 1.35225,-3.22537 1.93359,-4.96875 v -0.004 c 0.59674,-1.74899 1.14399,-3.67066 1.64062,-5.76758 0.11481,-0.48758 -0.25495,-0.95479 -0.75586,-0.95508 h -1.3125 c -0.36789,4.9e-4 -0.68502,0.25892 -0.75976,0.61914 -0.14642,0.70547 -0.33377,1.4744 -0.5625,2.3086 -6.9e-4,0.003 -0.001,0.007 -0.002,0.01 -0.21567,0.82224 -0.45275,1.64411 -0.70899,2.4668 -0.2533,0.79976 -0.50695,1.56399 -0.75976,2.29687 -0.3099,-0.8531 -0.57631,-1.72216 -0.84779,-2.58818 l -0.004,-0.0156 c -0.22784,-0.79112 -0.44335,-1.56186 -0.64453,-2.3125 l -0.002,-0.008 c -6.7e-4,-0.003 -0.001,-0.005 -0.002,-0.008 -0.18613,-0.7591 -0.33822,-1.47078 -0.45704,-2.13086 -0.0673,-0.36987 -0.38983,-0.63846 -0.76577,-0.63781 h -1.14648 c -0.36494,-5.1e-4 -0.68105,0.25303 -0.75977,0.60938 -0.14774,0.67154 -0.3227,1.39188 -0.52539,2.16211 -0.20326,0.75874 -0.41985,1.52983 -0.65039,2.3164 -0.25335,0.86604 -0.53282,1.72436 -0.836,2.5742 -0.25042,-0.71353 -0.50082,-1.46493 -0.75195,-2.25781 l -0.002,-0.004 c -0.2555,-0.82046 -0.49781,-1.64068 -0.72656,-2.46093 v -0.002 c -0.001,-0.004 -0.003,-0.008 -0.004,-0.0117 -0.21438,-0.83154 -0.39453,-1.60081 -0.54102,-2.30664 -0.0747,-0.36023 -0.39187,-0.61866 -0.75977,-0.61914 z m -57.751951,2.5156 c 0.857388,0 1.403205,0.26547 1.886719,0.88867 l 0.0039,0.006 c 0.482262,0.61086 0.75586,1.4701 0.75586,2.67578 0,1.20568 -0.273598,2.06491 -0.75586,2.67578 -0.48153,0.60994 -1.029874,0.87305 -1.890625,0.87305 -0.860751,0 -1.411047,-0.26311 -1.892578,-0.87305 -0.482261,-0.61087 -0.753906,-1.4701 -0.753906,-2.67578 0,-1.20568 0.271645,-2.06492 0.753906,-2.67578 l 0.0039,-0.006 c 0.483514,-0.6232 1.031284,-0.88867 1.888672,-0.88867 z m 50.568361,0 c 0.85739,0 1.40516,0.26548 1.88867,0.88867 0.60274,0.76846 0.73789,1.73386 0.75986,2.68178 0,1.20568 -0.2736,2.06491 -0.75586,2.67578 -0.48153,0.60994 -1.03183,0.87305 -1.89258,0.87305 -0.86075,0 -1.40909,-0.26311 -1.89063,-0.87305 -0.48226,-0.61087 -0.75586,-1.4701 -0.75586,-2.67578 0,-1.20568 0.2736,-2.06492 0.75586,-2.67578 0.46303,-0.63958 1.12891,-0.86993 1.89072,-0.89467 z m -26.62891,0.0215 c 0.25807,0 0.49584,0.0285 0.72071,0.082 0.13779,0.0236 0.41224,0.0819 0.69926,0.1935 0.21905,0.0738 0.41689,0.18953 0.61137,0.31054 v 6.38086 c -0.56053,0.14168 -1.15084,0.12566 -1.7247,0.1308 -0.9798,0 -1.64892,-0.28029 -2.19922,-0.86133 -0.53253,-0.57612 -0.83789,-1.42502 -0.83789,-2.6875 0,-0.53353 0.0562,-1.02503 0.16407,-1.48047 6.7e-4,-0.002 10e-4,-0.004 0.002,-0.006 0.10382,-0.4499 0.26251,-0.80697 0.46875,-1.0957 0.19957,-0.30923 0.48497,-0.52324 0.79706,-0.70701 0.31417,-0.16041 0.73788,-0.25977 1.29883,-0.25977 z m -11.83789,4.40817 c 0.43649,-0.006 0.87253,0.0265 1.29492,0.1349 v 2.47461 c -0.10648,0.0136 -0.17678,0.0285 -0.29687,0.041 -0.35563,0.025 -0.78471,0.0391 -1.28516,0.0391 -0.37369,0 -0.6954,-0.03 -0.97265,-0.084 -0.24134,-0.062 -0.43595,-0.14647 -0.59375,-0.25 -0.11711,-0.084 -0.20727,-0.1919 -0.28907,-0.34961 -0.0635,-0.14543 -0.11328,-0.36214 -0.11328,-0.67187 0,-0.34119 0.0702,-0.53172 0.14649,-0.64063 0.12008,-0.17155 0.25801,-0.29112 0.44922,-0.38672 0.23074,-0.13963 0.4928,-0.18674 0.75388,-0.23445 0.31987,-0.0492 0.62137,-0.0723 0.90625,-0.0723 z"
           id="path53" /></g><g
         id="path51"><path
           style="-inkscape-font-specification:'ubuntu Light';stroke:none;stroke-linecap:butt;stroke-linejoin:miter"
           d="m 138.01758,142.96289 c -0.44902,0 -0.90872,0.19283 -1.23047,0.50781 -0.35119,0.33314 -0.5293,0.82594 -0.5293,1.29297 0,0.472 0.17191,0.96682 0.51367,1.3086 0.007,0.007 0.0142,0.0131 0.0215,0.0195 0.32654,0.3032 0.78291,0.47461 1.22461,0.47461 0.44169,0 0.90003,-0.17141 1.22656,-0.47461 0.007,-0.006 0.0131,-0.0129 0.0195,-0.0195 0.34177,-0.34178 0.51563,-0.8366 0.51563,-1.3086 0,-0.46703 -0.17811,-0.95983 -0.5293,-1.29297 -0.3218,-0.31575 -0.7828,-0.50781 -1.23242,-0.50781 z m -39.511721,0.30664 c -1.548622,0 -2.857172,0.34126 -3.839843,1.10742 -0.998035,0.77813 -1.509766,1.99271 -1.509766,3.38086 0,0.61275 0.09362,1.18133 0.304687,1.69141 0.0032,0.007 0.0064,0.013 0.0098,0.0195 0.219326,0.48927 0.534475,0.9318 0.929688,1.31055 0.0039,0.004 0.0078,0.008 0.01172,0.0117 0.384949,0.35286 0.837973,0.66169 1.351563,0.93359 0.495033,0.26208 1.046435,0.51282 1.65625,0.75391 0.459615,0.18927 0.899422,0.37119 1.318359,0.54687 0.0065,0.003 0.01298,0.005 0.01953,0.008 0.364708,0.14118 0.675522,0.31231 0.941407,0.51172 0.0058,0.005 0.01166,0.009 0.01758,0.0137 0.233734,0.16556 0.407916,0.36079 0.544926,0.61524 0.17326,0.28152 0.20191,0.60105 0.21486,0.92378 0,0.72244 -0.18341,1.05276 -0.576172,1.3164 -0.437153,0.27931 -1.144446,0.46875 -2.154297,0.46875 -0.441395,0 -0.834879,-0.0324 -1.179688,-0.0918 -0.368166,-0.0635 -0.689303,-0.13714 -0.964844,-0.22071 -0.0017,-5.2e-4 -0.0042,-0.001 -0.0059,-0.002 -0.280748,-0.0986 -0.52356,-0.19617 -0.716797,-0.28711 -0.21776,-0.10248 -0.383609,-0.1915 -0.484375,-0.25195 -0.416997,-0.24919 -0.957839,-0.0589 -1.126953,0.39648 l -0.451172,1.20899 c -0.130721,0.35074 0.0072,0.74483 0.328125,0.9375 0.182397,0.10943 0.395099,0.21314 0.658203,0.33007 0.285064,0.1267 0.6115,0.2454 0.988282,0.36133 0.0091,0.003 0.01818,0.005 0.02734,0.008 0.390215,0.10506 0.820653,0.19182 1.294922,0.26368 0.497021,0.0753 1.03418,0.11132 1.613281,0.11132 1.638795,0 3.022075,-0.34548 4.082025,-1.11132 h 0.002 c 1.09843,-0.78464 1.67383,-2.05495 1.67383,-3.51954 0,-0.7424 -0.12109,-1.41588 -0.4043,-2 -0.26263,-0.54166 -0.62713,-1.0162 -1.07813,-1.40039 -0.42875,-0.36523 -0.92574,-0.67433 -1.48437,-0.93164 l -0.006,-0.004 c -0.50289,-0.23735 -1.036994,-0.47328 -1.605467,-0.70899 h -0.002 c -0.458345,-0.18872 -0.881576,-0.37101 -1.269531,-0.54492 -0.352341,-0.15794 -0.651072,-0.32906 -0.900391,-0.50976 -0.202188,-0.15589 -0.350003,-0.3256 -0.458984,-0.5254 -0.0882,-0.16169 -0.150391,-0.39606 -0.150391,-0.73632 0,-0.32574 0.05808,-0.55517 0.140625,-0.72461 0.10887,-0.19552 0.237459,-0.342 0.410156,-0.46289 0.0066,-0.005 0.0131,-0.0103 0.01953,-0.0156 0.178896,-0.13417 0.39115,-0.23188 0.666016,-0.29297 0.0065,-0.002 0.01305,-0.004 0.01953,-0.006 0.313044,-0.0782 0.666378,-0.11914 1.0625,-0.11914 0.591334,0 1.125471,0.0738 1.607417,0.21485 0.001,6.7e-4 0.003,0.001 0.004,0.002 0.50985,0.14567 0.91665,0.3318 1.22851,0.54687 0.40545,0.27898 0.96483,0.11552 1.15625,-0.33789 l 0.49219,-1.16796 c 0.14223,-0.33843 0.0282,-0.73022 -0.27344,-0.93946 -0.23857,-0.16517 -0.50978,-0.30225 -0.8164,-0.42578 l -0.006,-0.002 c -0.29021,-0.12182 -0.6094,-0.22526 -0.95117,-0.3125 l -0.01,-0.002 c -0.35331,-0.10698 -0.72994,-0.1909 -1.128902,-0.25 -0.407551,-0.0604 -0.820532,-0.0898 -1.240235,-0.0898 z m 11.445311,3.66992 c -0.68806,0 -1.36625,0.13866 -2.01367,0.40625 -0.65499,0.26272 -1.2446,0.67396 -1.75,1.21094 -0.003,0.003 -0.005,0.007 -0.008,0.01 -0.49797,0.54617 -0.89356,1.21296 -1.19531,1.98242 -6.8e-4,0.003 -0.001,0.005 -0.002,0.008 -0.30123,0.79273 -0.4414,1.69351 -0.4414,2.69531 0,0.86788 0.10366,1.68355 0.3164,2.44336 6.6e-4,0.001 10e-4,0.003 0.002,0.004 0.21915,0.76707 0.58036,1.4568 1.08007,2.03711 0.50667,0.58839 1.15613,1.04324 1.91016,1.35742 0.77631,0.32346 1.67017,0.4707 2.67578,0.4707 0.76553,0 1.45219,-0.0792 2.0625,-0.25586 0.55284,-0.15603 0.92936,-0.27436 1.25586,-0.46093 0.29351,-0.16829 0.44439,-0.50716 0.37305,-0.83789 l -0.2461,-1.14844 c -0.10719,-0.49512 -0.65191,-0.75689 -1.10547,-0.53125 -0.11854,0.0593 -0.40862,0.17182 -0.81445,0.30273 -0.30059,0.097 -0.80882,0.16797 -1.48437,0.16797 -1.17458,0 -1.8624,-0.2899 -2.28125,-0.77539 -0.30703,-0.35587 -0.39937,-1.06202 -0.52735,-1.70898 h 6.41797 c 0.38709,1.1e-4 0.71522,-0.28471 0.76953,-0.66797 0.0108,-0.0759 0.049,-0.69501 0.049,-0.74414 0,-1.8765 -0.41351,-3.3964 -1.37305,-4.44141 -0.91169,-1.00688 -2.20443,-1.52344 -3.66992,-1.52344 z m 37.25781,0 c -0.84308,0 -1.63317,0.1569 -2.34375,0.47852 -0.70163,0.30414 -1.31584,0.75137 -1.8125,1.32812 -0.49394,0.57362 -0.87046,1.25561 -1.13086,2.02149 -0.001,0.005 -0.003,0.009 -0.004,0.0137 -0.24665,0.77076 -0.36524,1.61003 -0.36524,2.51172 0,0.88915 0.11905,1.72286 0.36524,2.49219 6.6e-4,0.001 0.001,0.003 0.002,0.004 0.24574,0.75258 0.60644,1.42695 1.08399,2 0.005,0.006 0.0103,0.0118 0.0156,0.0176 0.50391,0.56894 1.13588,1.00815 1.86328,1.30859 0.7389,0.30521 1.5686,0.44922 2.47071,0.44922 0.63231,0 1.24346,-0.0756 1.82812,-0.22851 0.56079,-0.13004 0.99327,-0.26059 1.35742,-0.46289 0.30817,-0.17075 0.46289,-0.52747 0.37696,-0.86914 l -0.28711,-1.14649 c -0.12255,-0.49241 -0.67652,-0.73711 -1.12305,-0.49609 -0.10034,0.054 -0.36681,0.16641 -0.73828,0.29492 -0.27485,0.0874 -0.67432,0.14453 -1.18946,0.14453 -0.6168,0 -1.10365,-0.093 -1.4746,-0.24609 -0.37272,-0.17289 -0.6605,-0.39129 -0.89258,-0.66016 -0.22622,-0.29111 -0.39823,-0.6328 -0.50977,-1.05664 -0.11786,-0.46099 -0.17969,-0.97391 -0.17969,-1.54492 0,-1.28246 0.27737,-2.16556 0.73243,-2.73438 0.46347,-0.57553 1.07259,-0.85547 2.07812,-0.85547 0.53707,0 0.94765,0.0426 1.19336,0.10157 0.29218,0.0701 0.54272,0.161 0.75586,0.26758 0.43007,0.21439 0.94968,-0.009 1.08984,-0.46875 l 0.34961,-1.14844 c 0.10652,-0.35136 -0.0474,-0.72932 -0.36914,-0.90625 -0.3885,-0.21367 -0.8431,-0.34657 -1.39453,-0.45117 -0.54763,-0.10649 -1.13082,-0.15821 -1.74805,-0.15821 z m 9.92969,0 c -0.68806,0 -1.36625,0.13866 -2.01367,0.40625 -0.65499,0.26272 -1.2446,0.67395 -1.75,1.21094 l -0.01,0.01 c -0.49797,0.54617 -0.8916,1.21295 -1.19336,1.98242 -0.001,0.003 -0.003,0.005 -0.004,0.008 -0.30124,0.79273 -0.43945,1.69351 -0.43945,2.69531 0,0.86788 0.10366,1.68355 0.3164,2.44336 v 0.004 c 0.21917,0.76706 0.58233,1.4568 1.08203,2.03711 0.50667,0.58839 1.15417,1.04324 1.90821,1.35742 0.7763,0.32346 1.67212,0.4707 2.67773,0.4707 0.76553,0 1.45023,-0.0792 2.06055,-0.25586 0.55408,-0.15635 0.92891,-0.27411 1.25586,-0.46093 0.29426,-0.16771 0.44598,-0.50671 0.375,-0.83789 l -0.2461,-1.14844 c -0.10687,-0.4964 -0.65337,-0.75857 -1.10742,-0.53125 -0.11854,0.0593 -0.40667,0.17182 -0.8125,0.30273 -0.30059,0.097 -0.80882,0.16797 -1.48437,0.16797 -1.17458,0 -1.86436,-0.28991 -2.28321,-0.77539 -0.30699,-0.35583 -0.3974,-1.06212 -0.52539,-1.70898 h 6.41602 c 0.38709,1.1e-4 0.71522,-0.28471 0.76953,-0.66797 0.015,-0.10527 0.0202,-0.21213 0.0234,-0.32032 l 0.006,-0.084 c 0.0113,-0.11323 0.0195,-0.22623 0.0195,-0.33984 0,-1.87461 -0.41166,-3.3926 -1.36914,-4.4375 -3.7e-4,-4.1e-4 -0.002,4e-4 -0.002,0 -0.91183,-1.00881 -2.20301,-1.52735 -3.66992,-1.52735 z m 10.85156,0 c -1.25615,0 -2.34961,0.30139 -3.17578,0.97266 l -0.006,0.006 c -0.80061,0.66434 -1.24414,1.63515 -1.24414,2.68945 0,0.54523 0.0995,1.05834 0.33399,1.50781 0.20958,0.40171 0.49511,0.75806 0.84179,1.05274 0.0689,0.0574 0.47287,0.38392 1.09963,0.69729 0.083,0.0356 0.44276,0.21053 1.17579,0.51391 0.48641,0.20267 0.8892,0.3767 1.20508,0.52148 0.003,0.002 0.007,0.004 0.01,0.006 0.29881,0.13148 0.5174,0.26236 0.64844,0.36719 0.12118,0.0969 0.16968,0.17031 0.19531,0.23437 0.0726,0.14133 0.0774,0.29611 0.0879,0.45115 0,0.38215 -0.05,0.45047 -0.33594,0.59766 -0.34782,0.17281 -0.85368,0.28516 -1.5332,0.28516 -0.38803,0 -0.7205,-0.0251 -0.99414,-0.0703 -0.28464,-0.0495 -0.5222,-0.10433 -0.71485,-0.16015 -0.20266,-0.0718 -0.36183,-0.13038 -0.47656,-0.17578 -0.0925,-0.0486 -0.18467,-0.10098 -0.15039,-0.0781 -0.4375,-0.2917 -1.03234,-0.0737 -1.17773,0.43164 l -0.34766,1.20899 c -0.10385,0.35976 0.0637,0.74241 0.39844,0.91015 0.26782,0.13392 0.5928,0.23975 1.08594,0.39063 5.1e-4,1.7e-4 0.001,-1.7e-4 0.002,0 0.63099,0.21004 1.40065,0.28711 2.375,0.28711 1.34344,0 2.48478,-0.26302 3.36914,-0.87305 l 0.002,-0.002 c 0.91654,-0.62375 1.42578,-1.66259 1.42578,-2.81446 0,-0.5945 -0.10414,-1.14139 -0.35937,-1.61523 -0.22158,-0.4241 -0.52115,-0.79408 -0.88672,-1.0918 -0.34656,-0.29544 -0.7428,-0.53912 -1.18164,-0.72851 -0.37744,-0.18117 -0.77483,-0.3554 -1.18945,-0.52149 -0.349,-0.14351 -0.69668,-0.29017 -1.0432,-0.43955 -0.22247,-0.0951 -0.42811,-0.22256 -0.6331,-0.34975 -0.11964,-0.1 -0.2005,-0.1965 -0.25195,-0.29297 -0.0385,-0.0722 -0.0742,-0.18467 -0.0742,-0.37305 0,-0.17604 0.035,-0.25414 0.0625,-0.29687 0.0452,-0.0791 0.0976,-0.1617 0.23826,-0.24611 0.13712,-0.10125 0.29588,-0.14752 0.45699,-0.19332 0.22816,-0.0668 0.46523,-0.0783 0.70113,-0.0861 0.70467,0 1.20847,0.0777 1.43945,0.16016 0.003,6.8e-4 0.005,0.001 0.008,0.002 0.38234,0.13184 0.65352,0.2418 0.74805,0.28906 0.44214,0.22107 0.97558,-0.0215 1.09961,-0.5 l 0.30664,-1.18945 c 0.0924,-0.3551 -0.0761,-0.72646 -0.4043,-0.89063 -0.30278,-0.15138 -0.65587,-0.25455 -1.15429,-0.38281 -0.56126,-0.14858 -1.21403,-0.21094 -1.98243,-0.21094 z m -46.44726,0.041 c -0.90823,0 -1.70154,0.0856 -2.39258,0.27344 -0.52259,0.1208 -1.03335,0.2866 -1.52944,0.49023 -0.28223,0.12382 -0.46461,0.40274 -0.46484,0.71094 v 10.10742 c -1.9e-4,0.42939 0.34795,0.77753 0.77734,0.77734 h 1.33204 c 0.42939,1.9e-4 0.77753,-0.34795 0.77734,-0.77734 v -8.71484 c 0.43022,-0.1156 0.98838,-0.12501 1.29495,-0.12501 0.51436,0 0.90867,0.0352 1.15234,0.0859 0.14002,0.0281 0.42473,0.0865 0.48828,0.0998 0.4493,0.224 0.9899,-0.0305 1.10351,-0.51953 l 0.26758,-1.14844 c 0.0835,-0.36044 -0.0987,-0.72977 -0.43555,-0.88281 -0.29446,-0.13384 -0.58576,-0.18924 -1.00586,-0.26172 -0.43312,-0.0773 -0.88738,-0.11523 -1.36523,-0.11523 z m 3.88086,0.20508 c -0.50625,-3e-4 -0.87758,0.47587 -0.75391,0.96679 0.24983,0.98542 0.52849,1.95785 0.83399,2.91602 0.30376,0.9527 0.62142,1.8847 0.95312,2.79687 10e-4,0.003 0.003,0.007 0.004,0.01 0.34522,0.91139 0.69685,1.79065 1.05664,2.63477 0.35957,0.84362 0.719,1.63876 1.08008,2.38867 0.12923,0.26987 0.40195,0.44155 0.70117,0.4414 h 1.27148 c 0.30287,-1.1e-4 0.57808,-0.17621 0.70508,-0.45117 0.34403,-0.7431 0.69411,-1.5326 1.05078,-2.36914 l 0.004,-0.01 c 0.3736,-0.84468 0.72519,-1.72397 1.05664,-2.63477 0.34673,-0.91538 0.67372,-1.85069 0.97851,-2.80664 0.30551,-0.95817 0.58221,-1.9306 0.83204,-2.91602 0.12347,-0.49014 -0.24651,-0.96582 -0.75196,-0.96679 h -1.33398 c -0.36303,0 -0.67767,0.25139 -0.75781,0.60547 -0.15973,0.70543 -0.35956,1.46892 -0.60157,2.28906 -6.8e-4,0.003 -0.001,0.005 -0.002,0.008 -0.228,0.80472 -0.48367,1.61044 -0.76563,2.41602 -6.7e-4,0.002 -0.001,0.004 -0.002,0.006 -0.26955,0.79518 -0.55356,1.57065 -0.84961,2.32421 -0.0545,0.13619 -0.10428,0.23093 -0.1582,0.36133 -0.0539,-0.13036 -0.10373,-0.22519 -0.1582,-0.36133 l -0.002,-0.004 c -0.29519,-0.75153 -0.58301,-1.52397 -0.86523,-2.31641 -0.26915,-0.80742 -0.52524,-1.61466 -0.76758,-2.42187 -0.22943,-0.82326 -0.42519,-1.59082 -0.58594,-2.30078 -0.0801,-0.35408 -0.39478,-0.60547 -0.75781,-0.60547 z m 11.9375,0 c -0.42863,8.8e-4 -0.77559,0.34871 -0.77539,0.77734 v 10.59961 c -2e-4,0.42863 0.34676,0.77646 0.77539,0.77734 h 1.33398 c 0.42863,-8.8e-4 0.77559,-0.34871 0.77539,-0.77734 v -10.59961 c 2e-4,-0.42863 -0.34676,-0.77646 -0.77539,-0.77734 z m -27.38867,2.49609 c 0.72553,0 1.13699,0.19663 1.48437,0.63086 0.22135,0.27668 0.27628,0.84195 0.38086,1.32227 h -4.125 c 0.058,-0.43507 0.29789,-0.81577 0.56837,-1.15235 l 0.002,-0.002 c 0.2265,-0.25835 0.47463,-0.45052 0.75391,-0.5957 0.26488,-0.13082 0.56461,-0.20313 0.93555,-0.20313 z m 47.1875,0 c 0.72553,0 1.13699,0.19663 1.48437,0.63086 0.22132,0.27664 0.27432,0.84206 0.37891,1.32227 h -4.12305 c 0.0545,-0.43598 0.29749,-0.81611 0.56832,-1.15235 0.22667,-0.25905 0.47243,-0.45213 0.75195,-0.59765 0.26566,-0.13183 0.56704,-0.20313 0.93946,-0.20313 z"
           id="path55" /></g></g></g></svg>
